<svg fill="#124e3a" height="22" width="76" xmlns="http://www.w3.org/2000/svg"><path d="M74.4 17.765v-5.971c0-1.743-.509-3.17-1.55-4.06a3.879 3.879 0 00-1.247-.715 5.453 5.453 0 00-1.83-.292c-.64 0-1.24.1-1.788.292-1.5.522-2.631 1.75-3.25 3.583l-.115-3.583h-5.272v.525c1.163.728 1.89 1.192 1.89 2.914v7.178c0 1.66-.509 2.532-1.948 2.532s-1.98-.872-1.98-2.68c0-1.95.086-3.685.086-5.842 0-1.788-.577-3.08-1.737-3.887a1.647 1.647 0 00-.157-.103c-.98-.621-2.35-.929-4.106-.929-1.746 0-3.163.353-4.175.93-1.145.65-1.766 1.589-1.766 2.624 0 1.192.788 1.862 1.98 1.862.539 0 1.221-.163 1.615-.442a.889.889 0 00.19-.17c-.379-.32-.699-.699-.699-1.516 0-1.34.933-2.096 2.503-2.096 2.1 0 2.827 1.135 2.827 3.407v1.487l-2.301.407c-3.436.612-6.814 1.542-6.814 4.718 0 2.416 1.92 3.637 4.253 3.637 2.416 0 4.307-1.25 4.923-3.115.201 2.183 1.163 2.827 3.144 2.827h9.258v-.526c-1.253-.843-1.602-1.077-1.602-3v-4.047c0-3.087 1.573-4.66 3.493-4.66 1.952 0 2.68 1.455 2.68 3.233v5.474c0 1.923-.35 2.157-1.603 3v.526H76v-.526c-1.25-.843-1.6-1.077-1.6-2.997zm-20.53-2.302c0 2.795-1.599 4.253-3.32 4.253-1.429 0-2.272-.814-2.272-2.272 0-1.923 1.253-2.68 3.727-3.202l1.866-.407zm-31.65 5.298v.526h-6.7v-.526c1.253-.843 1.602-1.077 1.602-3V10.16c0-.817-.05-2.025-1.224-2.025-.368 0-.724.176-1.05.449-.581.484-1.068 1.262-1.366 1.868L8.038 21.575h-.234l-.61-1.247-3.108-6.368-1.57-3.217C1.57 8.778.936 8.143 0 7.54v-.526h6.378v.526c-.699.522-.895.756-.895 1.224 0 .407.206.933.555 1.69l1.157 2.4 1.862 3.858 2.795-6.086c.352-.756.464-1.134.464-1.516 0-.583-.522-1.048-1.336-1.573v-.526h9.637v10.746c0 1.926.35 2.16 1.602 3.003zM18.726 4.368c1.253 0 2.243-.961 2.243-2.182C20.97.96 19.98 0 18.726 0S16.51.961 16.51 2.186c0 1.22.962 2.182 2.215 2.182zM43.97 20.761v.526h-6.698v-.526c1.254-.843 1.603-1.077 1.603-3V10.16c0-.817-.051-2.025-1.224-2.025-.369 0-.725.176-1.052.449-.58.484-1.067 1.262-1.365 1.868L29.79 21.575h-.234l-.609-1.247-3.108-6.368-1.57-3.217c-.946-1.965-1.58-2.6-2.517-3.202v-.526h6.378v.526c-.699.522-.894.756-.894 1.224 0 .407.205.933.554 1.69l1.157 2.4 1.862 3.858 2.795-6.086c.352-.756.465-1.134.465-1.516 0-.583-.523-1.048-1.337-1.573v-.526h9.637v10.746c0 1.926.35 2.16 1.603 3.003zM40.477 4.368c1.253 0 2.244-.961 2.244-2.182C42.72.96 41.73 0 40.477 0c-1.253 0-2.214.961-2.214 2.186 0 1.22.961 2.182 2.214 2.182z"/></svg>